<?xml version="1.0" encoding="utf-8"?>
<!-- Generator: Adobe Illustrator 16.0.0, SVG Export Plug-In . SVG Version: 6.00 Build 0)  -->
<!DOCTYPE svg PUBLIC "-//W3C//DTD SVG 1.1//EN" "http://www.w3.org/Graphics/SVG/1.1/DTD/svg11.dtd">
<svg version="1.1" id="Layer_1" xmlns="http://www.w3.org/2000/svg" xmlns:xlink="http://www.w3.org/1999/xlink" x="0px" y="0px"
	 width="120px" height="39.23px" viewBox="0 0 120 39.23" enable-background="new 0 0 120 39.23" xml:space="preserve">
<g>
	<g>
		<polygon fill="#587ABC" points="11.815,7.319 11.815,12.1 2.599,19.906 11.815,28.056 11.815,32.583 0,22.02 0,17.734 		"/>
		<polygon fill="#587ABC" points="108.185,7.319 108.185,12.1 117.402,19.906 108.185,28.056 108.185,32.583 120,22.02 120,17.734 
					"/>
		<polygon fill="#587ABC" points="104.098,0 106.91,0 98.791,39.23 95.981,39.23 		"/>
	</g>
	<g>
		<path d="M28.413,22.608l0.024,0.083c0.032,1.865-0.55,3.426-1.745,4.683c-1.196,1.255-2.775,1.884-4.738,1.884
			c-1.996,0-3.622-0.796-4.877-2.389c-1.256-1.593-1.884-3.613-1.884-6.062v-3.535c0-2.448,0.628-4.471,1.884-6.068
			c1.256-1.597,2.882-2.396,4.877-2.396c1.995,0,3.583,0.599,4.762,1.795c1.179,1.197,1.753,2.783,1.721,4.757l-0.024,0.082h-2.291
			c0-1.392-0.363-2.493-1.09-3.303c-0.727-0.81-1.753-1.215-3.078-1.215c-1.333,0-2.396,0.605-3.187,1.815
			c-0.792,1.211-1.188,2.712-1.188,4.505v3.563c0,1.811,0.396,3.322,1.188,4.532c0.792,1.212,1.854,1.817,3.187,1.817
			c1.325,0,2.351-0.403,3.078-1.209s1.09-1.919,1.09-3.339H28.413z"/>
		<path d="M30.655,21.448c0-2.184,0.525-3.983,1.575-5.399c1.05-1.415,2.476-2.123,4.277-2.123c1.818,0,3.254,0.706,4.308,2.116
			c1.055,1.411,1.582,3.213,1.582,5.405v0.301c0,2.203-0.525,4.004-1.576,5.407c-1.05,1.401-2.48,2.102-4.29,2.102
			c-1.81,0-3.242-0.703-4.296-2.109s-1.581-3.206-1.581-5.399V21.448z M33.042,21.749c0,1.564,0.292,2.858,0.878,3.878
			c0.586,1.019,1.457,1.529,2.612,1.529c1.139,0,2.003-0.511,2.593-1.529c0.589-1.02,0.885-2.313,0.885-3.878v-0.301
			c0-1.546-0.297-2.834-0.891-3.862s-1.464-1.543-2.612-1.543c-1.139,0-2.001,0.515-2.587,1.543s-0.878,2.316-0.878,3.862V21.749z"
			/>
		<path d="M44.772,21.858c0-2.375,0.45-4.291,1.351-5.747c0.901-1.457,2.164-2.185,3.787-2.185c0.768,0,1.448,0.16,2.042,0.479
			c0.594,0.318,1.101,0.782,1.521,1.392V7.674h2.387v21.297h-1.83l-0.363-1.87c-0.429,0.71-0.958,1.246-1.588,1.61
			c-0.63,0.363-1.361,0.546-2.193,0.546c-1.6,0-2.852-0.653-3.757-1.959c-0.905-1.307-1.357-3.024-1.357-5.153V21.858z
			 M47.16,22.145c0,1.492,0.271,2.687,0.812,3.583c0.541,0.897,1.381,1.345,2.521,1.345c0.711,0,1.309-0.181,1.793-0.546
			c0.485-0.364,0.88-0.874,1.188-1.529v-6.894c-0.307-0.609-0.705-1.094-1.193-1.454s-1.076-0.539-1.763-0.539
			c-1.147,0-1.994,0.532-2.539,1.597c-0.545,1.065-0.817,2.448-0.817,4.15V22.145z"/>
		<path d="M62.004,10.418h-2.387V7.674h2.387V10.418z M62.004,28.971h-2.387V14.2h2.387V28.971z"/>
		<path d="M68.258,28.971h-2.389V7.674h2.389V28.971z"/>
		<path d="M74.51,10.418h-2.388V7.674h2.388V10.418z M74.51,28.971h-2.388V14.2h2.388V28.971z"/>
		<path d="M81.503,10.637V14.2h2.483v1.993h-2.483v8.969c0,0.691,0.127,1.179,0.381,1.46c0.254,0.284,0.592,0.425,1.012,0.425
			c0.138,0,0.291-0.021,0.461-0.063c0.169-0.041,0.311-0.083,0.424-0.13l0.327,1.844c-0.178,0.164-0.44,0.299-0.787,0.403
			c-0.348,0.104-0.691,0.156-1.03,0.156c-0.97,0-1.741-0.33-2.315-0.989c-0.573-0.66-0.859-1.696-0.859-3.106v-8.969H77.03V14.2
			h2.085v-3.563H81.503z"/>
		<path d="M90.554,23.497l0.425,1.855h0.072L94.274,14.2h2.654l-5.514,17.037c-0.332,0.991-0.807,1.856-1.425,2.594
			c-0.617,0.736-1.452,1.105-2.502,1.105c-0.193,0-0.44-0.024-0.739-0.075c-0.299-0.05-0.528-0.098-0.69-0.144l0.242-2.115
			c-0.048-0.01,0.095,0,0.431,0.026c0.335,0.028,0.547,0.042,0.636,0.042c0.509,0,0.925-0.255,1.249-0.765
			c0.322-0.51,0.593-1.074,0.812-1.693l0.569-1.541L85.126,14.2h2.666L90.554,23.497z"/>
	</g>
</g>
</svg>
